<svg width="84" height="84" viewBox="0 0 84 84" fill="none" xmlns="http://www.w3.org/2000/svg">
<rect width="84" height="84" rx="42" fill="#C4C4C4"/>
<rect width="84" height="84" rx="42" fill="url(#paint0_linear_2325_5514)"/>
<path d="M39.6912 24.3076C29.9958 24.3076 22.1362 32.5222 22.1362 42.6553C22.1362 52.7885 29.9958 61.0031 39.6912 61.0031H45.354C48.3468 61.0031 51.1646 60.2204 53.6304 58.8401C56.4226 60.6997 61.8397 60.641 62.3427 60.1153C62.5064 59.9441 62.315 59.5997 61.9875 59.0105C61.3667 57.8935 60.2568 55.8966 60.151 52.5321C61.8968 49.6808 62.909 46.2916 62.909 42.6553C62.909 32.5222 55.0493 24.3076 45.354 24.3076H39.6912Z" fill="#B6B6B6"/>
<path d="M42.6608 35.957L43.7106 34.742L43.836 34.5968L62.994 32.6567C64.3429 32.5201 65.066 34.2795 63.9592 35.1417L53.2091 43.5161C51.8594 44.5676 49.9357 44.3769 48.8125 43.077L42.6608 35.957ZM42 35.1922L41.6747 34.8157L42 34.7827L42.3253 34.8157L42 35.1922ZM40.164 34.5968L40.2894 34.742L41.3392 35.957L35.1875 43.077C34.0643 44.3769 32.1406 44.5676 30.7909 43.5161L20.0408 35.1417C18.934 34.2795 19.6571 32.5201 21.006 32.6567L40.164 34.5968Z" fill="#B6B6B6" stroke="#E1E1E1"/>
<path d="M40.0585 50.7426C38.0422 51.7507 32.6656 50.7426 29.9773 49.7344C34.0098 49.7344 39.7224 47.0461 41.0666 45.702C42.0747 46.038 42.6593 49.4421 40.0585 50.7426Z" fill="#E2E2E2"/>
<path d="M43.9369 50.7426C45.9531 51.7507 51.3297 50.7426 54.018 49.7344C49.9856 49.7344 44.2729 47.0461 42.9287 45.702C41.9206 46.038 41.336 49.4421 43.9369 50.7426Z" fill="#E2E2E2"/>
<path d="M44.0909 46.7101C44.0909 47.8236 43.1882 48.7263 42.0747 48.7263C40.9612 48.7263 40.0585 47.8236 40.0585 46.7101C40.0585 45.5965 40.9612 44.6938 42.0747 44.6938C43.1882 44.6938 44.0909 45.5965 44.0909 46.7101Z" fill="#E2E2E2"/>
<defs>
<linearGradient id="paint0_linear_2325_5514" x1="42" y1="0" x2="42" y2="84" gradientUnits="userSpaceOnUse">
<stop stop-color="white"/>
<stop offset="1" stop-color="white" stop-opacity="0"/>
</linearGradient>
</defs>
</svg>
