<svg width="20" height="20" viewBox="0 0 20 20" fill="none" xmlns="http://www.w3.org/2000/svg">
<path d="M15.1967 15.8187L14.9535 15.6667H14.6667H3.33333C2.04467 15.6667 1 14.622 1 13.3333V3.33333C1 2.04467 2.04467 1 3.33333 1H16.6667C17.9553 1 19 2.04467 19 3.33333V18.1958L15.1967 15.8187Z" stroke="black" stroke-width="2"/>
<path d="M4 6C4 5.44772 4.44772 5 5 5H15C15.5523 5 16 5.44772 16 6C16 6.55228 15.5523 7 15 7H5C4.44772 7 4 6.55228 4 6Z" fill="black"/>
<path d="M4 11C4 10.4477 4.44772 10 5 10H11C11.5523 10 12 10.4477 12 11C12 11.5523 11.5523 12 11 12H5C4.44772 12 4 11.5523 4 11Z" fill="black"/>
</svg>
