<svg width="26" height="26" viewBox="0 0 26 26" fill="none" xmlns="http://www.w3.org/2000/svg">
<path d="M10.1829 4.33176L10.3752 5.0496L11.118 5.07247C13.2425 5.13786 15.2264 6.34623 16.228 8.31939L20.5251 16.7854L5.5203 20.8059L5.00872 11.3256C4.88947 9.1157 6.00378 7.07698 7.81132 5.95824L8.44334 5.56707L8.25096 4.84911L8.17496 4.56547C8.03202 4.032 8.3486 3.48366 8.88207 3.34072C9.41553 3.19778 9.96387 3.51436 10.1068 4.04783L10.1829 4.33176ZM15.4731 21.2449C15.2938 21.9118 14.7736 22.4676 14.0585 22.6592C13.3435 22.8508 12.6151 22.6296 12.1263 22.1417L15.4731 21.2449Z" fill="black" stroke="black" stroke-width="2"/>
</svg>
