<svg width="20" height="20" viewBox="0 0 20 20" fill="none" xmlns="http://www.w3.org/2000/svg">
<path d="M9.5 2.5L15 2.5C16.1046 2.5 17 3.39543 17 4.5L17 9.5" stroke="black" stroke-width="2" stroke-linecap="round"/>
<path d="M14.6019 8.5L19.3981 8.5C19.8277 8.5 20.0573 9.00596 19.7744 9.32925L17 12.5L14.2256 9.32925C13.9427 9.00596 14.1723 8.5 14.6019 8.5Z" fill="black"/>
<path d="M10.5 17.5L5 17.5C3.89543 17.5 3 16.6046 3 15.5L3 10.5" stroke="black" stroke-width="2" stroke-linecap="round"/>
<path d="M5.39812 11.5L0.601884 11.5C0.172305 11.5 -0.0572849 10.994 0.225595 10.6707L3 7.5L5.7744 10.6707C6.05728 10.994 5.8277 11.5 5.39812 11.5Z" fill="black"/>
</svg>
